<svg width="579" height="538" viewBox="0 0 579 538" fill="none" xmlns="http://www.w3.org/2000/svg">
<path d="M303.6 0.933261C303.067 1.33326 302.667 90.2666 302.667 198.533C302.8 360 303.067 395.733 304.534 397.6C306.134 399.867 309.867 400 349.067 400C393.6 400 397.734 400.533 399.067 405.6C399.467 407.067 395.6 435.333 390.534 468.4C385.467 501.6 381.467 530.4 381.6 532.667L382 536.667L424.8 537.067C464.267 537.333 467.734 537.2 469.6 535.067C470.667 533.733 473.6 526.4 475.867 518.667C478.267 510.933 482.8 496.533 486 486.667C489.2 476.8 495.467 457.2 499.867 443.333C528.667 351.333 552.8 274.933 566 234C579.067 193.067 579.2 192.667 577.867 190.267C576.134 187.2 450.267 100.267 448.534 100.933C447.734 101.2 444 122 440.134 147.067C434 187.333 432.134 199.733 426.667 234C426 238.4 424.8 246.133 424 251.333C415.067 309.467 416.8 305.333 401.334 305.333C395.2 305.333 390.534 304.667 389.6 303.733C386.4 300.533 386.8 298.133 407.334 166.667C420.667 80.7999 420.667 81.3333 417.867 78.6666C415.467 76.3999 305.867 -7.27746e-05 304.934 -7.27746e-05C304.667 -7.27746e-05 304 0.399927 303.6 0.933261Z" fill="#003FA9"/>
<path d="M212 45.0666C180.267 68.2666 153.6 88.3999 152.8 89.5999C151.333 92.1332 152.267 99.7332 164 174C167.6 197.467 172.133 226.267 174 238C177.333 259.467 180.533 279.867 194.133 367.333C198.4 393.733 201.733 418.267 201.867 422L202 428.667L188.533 429.067L175.067 429.467L173.6 425.733C172.8 423.733 170.933 413.333 169.333 402.667C166 379.2 165.2 374.267 146.667 254.667C138.533 202.267 130.667 151.467 129.2 141.733C124.933 113.6 124.8 112.667 122.533 112.267C121.467 112.133 113.867 116.667 105.867 122.667C97.8667 128.533 84.4 138.4 76 144.4C24.6667 181.6 0 200.4 0 202.533C0 203.733 3.2 215.2 7.2 228C27.4667 293.6 51.6 370.933 57.3333 389.333C74 442.267 98.1333 520.133 100.267 528C103.2 538.133 91.6 537.333 226.667 537.333C329.2 537.333 347.867 537.067 349.2 535.467C351.733 532.4 366 436.133 364.4 433.467C363.2 431.6 357.867 431.2 320.133 430.667C279.467 430 277.067 429.867 275.2 427.467C273.6 425.2 273.333 394.133 273.333 215.2C273.333 41.5999 273.067 5.46657 271.6 4.13324C270.133 3.06657 257.067 11.9999 212 45.0666Z" fill="#003FA9"/>
</svg>
